# xmcd CD database file
#
# Track frame offsets:
#	150
#	18618
#	31407
#	50079
#	66310
#	79192
#	100010
#	119241
#	137191
#	158351
#	172527
#	188237
#	207988
#	221524
#	241384
#
# Disc length: 3447 seconds
#
# Revision: 0
# Processed by: cddbd v1.4PL0 Copyright (c) Steve Scherf et al.
# Submitted via: CdAid 2001.05.15.01
#
DISCID=d20d750f
DTITLE=GEORGE DAY - I'M A COUNTRY BOY
DYEAR=1900
DGENRE=
TTITLE0=UNCONTROLLABLE DESIRE
TTITLE1=THAT'S WHEN I MISS YOU
TTITLE2=LONGEST TIME THE
TTITLE3=CONFESSION
TTITLE4=I'M A COUNTRY BOY
TTITLE5=ONE LOOK AT YOU
TTITLE6=REMEMBER YOUR MOTHER
TTITLE7=A FLAME THAT WILL BURN
TTITLE8=SUNDAY MORNING CALL
TTITLE9=BLUEST GUY IN TOWN
TTITLE10=SHE LOOKS LIKE YOU
TTITLE11=I DON'T DO THAT ANYMORE
TTITLE12=MY WAY BACK TO YOU
TTITLE13=AUTUMN FANTASY
TTITLE14=THE LOVE OF JESUS
EXTD=
EXTT0=
EXTT1=
EXTT2=
EXTT3=
EXTT4=
EXTT5=
EXTT6=
EXTT7=
EXTT8=
EXTT9=
EXTT10=
EXTT11=
EXTT12=
EXTT13=
EXTT14=
PLAYORDER=
